<svg id="Calque_1" xmlns="http://www.w3.org/2000/svg" viewBox="0 0 1920 1080"><style>.st0{fill:#fff}</style><title>SaloneLudicoLogo-large-l3</title><path class="st0" d="M846.4 505h4.5v124.7h-4.5zm31.8 0h4.5v17.8h-4.5zm31.8 0h4.5v17.8H910zM496.4 612h4.5v17.8h-4.5zm286.4-80.2h4.5v98h-4.5zM623.7 612h4.5v17.8h-4.5zm31.8-80.2h4.5v71.3h-4.5zM241.8 505h4.5v17.8h-4.5zm31.8 0h4.5v17.8h-4.5zm1241 26.8h4.5v71.3h-4.5zm31.8 80.2h4.5v17.8h-4.5zm31.8 0h4.5v17.8h-4.5zM1260 505h4.5v124.7h-4.5zm31.9 107h4.5v17.8h-4.5zm95.4 0h4.5v17.8h-4.5zm-381.8-107h4.5v124.7h-4.5zm127.3 0h4.5v98h-4.5zM496.4 344.7h4.5v26.7h-4.5zm859.1 445.1h4.5v26.7h-4.5zm-700-480.7h4.5v26.7h-4.5zm95.4-80.2h4.5v26.7h-4.5zm-63.6 160.3h4.5v80.2h-4.5zm-95.5-17.8h4.5v98h-4.5zm318.2-8.9h4.5v26.7H910zm-572.7 89.1h4.5v26.7h-4.5zM210 398.1h4.5v71.3H210zm1431.9 267.2h4.5v71.3h-4.5zm63.6 44.6h4.5v71.3h-4.5zm-159-44.6h4.4v133.6h-4.4zM1451 798.7h4.5v53.8h-4.5zm-636.4-454h4.4v53.5h-4.4zm413.6 534.5h4.5v26.7h-4.5zm-159.1-133.7h4.5v26.7h-4.5zm127.4 26.7h4.4v102.3h-4.4zm-31.9-106.9h4.4v53.5h-4.4zm-31.8-222.6h4.5v35.6h-4.5zm-63.7-213.8h4.5v106.9h-4.5zm-63.6 106.9h4.4v133.6h-4.4zm-700 543.4h4.5v26.7h-4.5zm-63.7-213.8h4.5v80.2h-4.5zm222.7 80.2h4.5v26.7h-4.5zM401 656.5h4.4v213.8H401zm-31.9 8.9h4.4v53.5h-4.4zm254.6 62.4h4.5v35.6h-4.5zm95.4 196h4.5v35.6h-4.5zm0-258.4h4.5v71.3h-4.5zm127.3 17.8h4.5v35.6h-4.5zm127.2 80.2h4.5v26.7h-4.5zm381.9-311.8h4.5v26.7h-4.5zM1196.4 416h4.5v62.4h-4.5zm127.3-53.5h4.5v26.7h-4.5zm-95.4 53.5h4.4v53.5h-4.4zm477.2-98.1h4.5v71.3h-4.5zm-63.6 35.6h4.5v71.3h-4.5zm-95.5 62.4h4.5v35.6h-4.5zm-63.6-80.2h4.4v133.6h-4.4zm-63.6 8.9h4.5v26.7h-4.5z" id="Layer_4"/></svg>