<svg id="Calque_1" xmlns="http://www.w3.org/2000/svg" viewBox="0 0 750 1334"><style>.st0{fill:#fff}</style><title>SaloneLudicoLogo-l2</title><path class="st0" d="M48 492.8h4.2v41.3H48zm0 74.4h4.2v16.5H48zm0 75.6h4.2v115.8H48zm0 248.4h4.2V916H48zm0-654.8h4.2v107.5H48zm29.5 505.7h4.2v16.5h-4.2zm0 41.6h4.2v24.8h-4.2zm0-373.6h4.2v33.1h-4.2zm29.6 57.9h4.2v16.5h-4.2zm0 398.4h4.2v24.8h-4.2zm29.5-74.4h4.2v24.8h-4.2zm29.5-149.2h4.2v91h-4.2zm29.6 215.4h4.1v49.6h-4.1zm29.6 33.1h4.1v94.9h-4.1zm29.5-613.5h4.2V344h-4.2zM284.3 468h4.2v115.8h-4.2zm29.5 174.8h4.2v16.5h-4.2zm.1-323.7h4.2v24.8h-4.2zm-.1 563.9h4.2v74.4h-4.2zm29.6-57.9h4.2v66.2h-4.2zM373 236.4h4.1v206.8H373zm29.5 256.4h4.2V559h-4.2zm-.1 439.8h4.2v33.1h-4.2zM432 468h4.2v16.5H432zm0 398.4h4.2v66.2H432zm29.5-124.3h4.2v16.5h-4.2zm.1 41.4h4.1v82.7h-4.1zm29.5-636.4h4.2v97.6h-4.2zM520.6 468h4.2v115.8h-4.2zm0 199.7h4.2v66.2h-4.2zm0 116h4.2v24.8h-4.2zm29.5-41.6h4.2v16.5h-4.2zm0-323.7h4.2v24.8h-4.2zm29.6-177.7h4.1v94.9h-4.1zm29.6 144.6h4.1v49.6h-4.1zm29.5 282.4h4.2v66.2h-4.2zm0 124.3h4.2v66.2h-4.2zm29.5-274.4h4.2v16.5h-4.2zm0 224.5h4.2v16.5h-4.2zm29.5-224.5h4.2v16.5h-4.2zm0 415h4.2v24.8h-4.2zm0-99.3h4.2v66.2h-4.2z" id="Layer_2"/></svg>