<svg id="Calque_1" xmlns="http://www.w3.org/2000/svg" viewBox="0 0 750 1334"><style>.st0{fill:#fff}</style><title>SaloneLudicoLogo-l1</title><path class="st0" d="M166.1 492.8h4.2v91h-4.2zm59.1 0h4.2v91h-4.2zM668.3 468h4.2v16.5h-4.2zm29.5 0h4.2v16.5h-4.2zm0 99.2h4.2v16.5h-4.2zm-384 0h4.2v16.5h-4.2zm29.6 0h4.2v16.5h-4.2zM550.1 468h4.2v16.5h-4.2zm29.6 24.8h4.2v91h-4.2zM432 567.2h4.2v16.5H432zm29.5-74.4h4.2V559h-4.2zM77.5 468h4.2v16.5h-4.2zm29.6 49.6h4.2v41.3h-4.2zm443 125.2h4.2v16.5h-4.2zm29.6 0h4.2v16.5h-4.2zm-236.3 24.9h4.2v66.2h-4.2zm59.1-24.9h4.2v16.5h-4.2zm59 0h4.2v16.5h-4.2zm-354.4 99.3h4.2v16.5h-4.2zm561.2-99.3h4.2v16.5h-4.2zm29.5 24.9h4.2v66.2h-4.2zm-502.1 74.4h4.2v16.5h-4.2zm29.5-99.3h4.2v115.8h-4.2zM432 410.1h4.2v33.1H432zm-29.5-148.9h4.2v33.1h-4.2zm88.6 8.3h4.2v74.4h-4.2zm-118.2 638h4.2v24.8h-4.2zm177.2-695.9h4.2v24.8h-4.2zm-88.6 124.1h4.2v66.2h-4.2zm-236.3 33.1h4.2V435h-4.2zm88.7 0h4.2v74.4h-4.2zm265.8 16.5h4.2v57.9h-4.2zm-88.6-24.8h4.2v74.4h-4.2zm118.1-157.2h4.2v57.9h-4.2zM402.5 343.9h4.2v91h-4.2zm-59.1-49.6h4.2v91h-4.2zm206.7 0h4.2v66.2h-4.2zm118.2-8.3h4.2v33.1h-4.2zm0 124.1h4.2v24.8h-4.2zm29.5-41.3h4.2v74.4h-4.2zM77.5 833.3h4.2v33.1h-4.2zm561.3-588.6h4.1v198.5h-4.1zm-502.2 99.2h4.2V377h-4.2zm118.2 41.4h4.2v33.1h-4.2zM48 162h4.2v33.1H48zm59.1 223.3h4.2v33.1h-4.2zm59.1 33.1h4.2v24.8h-4.2zm0-148.9h4.2v24.8h-4.2zM48 368.7h4.2v66.2H48zm29.5-74.4h4.2v66.2h-4.2zm236.4-107.5h4.2v57.9h-4.2zm-29.5-90.6h4.1v289.1h-4.1zm-88.7 214.7h4.1V435h-4.1zm502.1 472.8h4.2v24.8h-4.2zm-29.5 8.3h4.1v124.1h-4.1zM432 783.7h4.2v33.1H432zm59.1 66.2h4.2V883h-4.2zm118.1-41.4h4.2v33.1h-4.2zm-88.6 124.1h4.2v24.8h-4.2zm0-99.2h4.2v66.2h-4.2zm-29.5 82.7h4.2v99.2h-4.2zM609.2 883h4.2v66.2h-4.2zm-59-91h4.1v124.1h-4.1zm-88.7 123.8h4.2v49.9h-4.2zm147.8-596.7h4.1v49.6h-4.1zM254.8 783.7h4.2v24.8h-4.2zm88.6 132.4h4.2v24.8h-4.2zM313.8 792h4.2v74.4h-4.2zm0 190.2h4.2v97.6h-4.2zm-118.1-16.5h4.2v57.9h-4.2zM402.4 792h4.2v91h-4.2zm-147.6 74.4h4.2v66.2h-4.2zm-118.2 41.4h4.2v33.1h-4.2zM195.7 792h4.1v49.6h-4.1z" id="Layer_1"/></svg>