<svg id="Calque_1" xmlns="http://www.w3.org/2000/svg" viewBox="0 0 750 1334"><style>.st0{fill:#fff}</style><title>SaloneLudicoLogo-l3</title><path class="st0" d="M166.2 327.4h4.2v66.2h-4.2zm-29.6-115.8h4.2v99.2h-4.2zM195.7 468h4.2v16.5h-4.2zm0 49.6h4.2v16.5h-4.2zm-118.2 0h4.2v16.5h-4.2zm0 49.6h4.2v16.5h-4.2zM48 783.7h4.2v74.4H48zm59.1 0h4.2v74.4h-4.2zm59.1 0h4.1v198.5h-4.1zm59 0h4.2v57.9h-4.2zm29.6 206.8h4.2v24.8h-4.2zm29.5-347.7h4.2v115.8h-4.2zm.1 140.9h4.1v182h-4.1zm29.4-41.6h4.2v16.5h-4.2zm59.1 41.4h4.2v33.1h-4.2zm29.6-41.4h4.2v16.5h-4.2zm29.5-99.3h4.2v115.8H432zM461.5 286h4.2v24.8h-4.2zm59.2-24.8h4.1v181.9h-4.1zm59 480.9h4.2v16.5h-4.2zm0 49.9h4.2v66.2h-4.2zm59.1-324h4.2v115.8h-4.2zm29.5 99.2h4.2v16.5h-4.2zm29.5-231.5h4.2v24.8h-4.2z" id="Layer_3"/></svg>