<svg id="Calque_1" xmlns="http://www.w3.org/2000/svg" viewBox="0 0 1920 1080"><style>.st0{fill:#fff}</style><title>SaloneLudicoLogo-large-l1</title><path class="st0" d="M337.3 531.8h4.5v98h-4.5zm31.8-26.8h4.5v17.8h-4.5zm509.1 53.5h4.5v17.8h-4.5zm31.8 0h4.5v17.8H910zM464.6 505h4.5v124.7h-4.5zm63.6 107h4.5v17.8h-4.5zm190.9-107h4.5v124.7h-4.5zm31.8 0h4.5v17.8h-4.5zm-159.1 26.8h4.5v71.3h-4.5zm31.9-26.8h4.5v17.8h-4.5zM210 531.8h4.5v44.5H210zm31.8 80.2h4.5v17.8h-4.5zm31.8-53.5h4.5V603h-4.5zM1546.4 505h4.5v17.8h-4.5zm-254.5 0h4.5v17.8h-4.5zm95.4 0h4.5v17.8h-4.5zm63.7 107h4.5v17.8h-4.5zm-381.9 0h4.5v17.8h-4.5zm572.8-80.2h4.5v71.3h-4.5zm31.8-26.8h4.5v17.8h-4.5zm0 107h4.5v17.8h-4.5zm31.8-80.2h4.5v71.3h-4.5zM1164.6 612h4.5v17.8h-4.5zm31.8-107h4.5v124.7h-4.5zM591.8 282.3h4.5v35.6h-4.5zm763.7 373.8h4.5v35.6h-4.5zm-700-293.6h4.5v71.3h-4.5zm-254.6 35.6h4.5v71.3h-4.5zm95.5 0h4.5v80.2h-4.5zM782.8 416h4.5v62.4h-4.5zm-95.5-256.7h4.5v105.2h-4.5zM814.6 220h4.5v62.4h-4.5zm-63.7 98h4.5v71.3h-4.5zm-190.8-62.4h4.4v222.7h-4.4zm318.1 53.5h4.5v35.6h-4.5zm0 133.6h4.5v26.7h-4.5zm31.8-44.6h4.5v80.2H910zm127.3 311.8h4.5v35.6h-4.5zm-31.8 62.3h4.5v26.7h-4.5zm0-115.8h4.5v80.2h-4.5zM719.2 282.3h4.4v196h-4.4zM241.8 442.7h4.5v35.6h-4.5zm63.7-71.3h4.5V407h-4.5zM432.7 416h4.5v35.6h-4.5zM210 175.4h4.5V211H210zm127.3 115.8h4.5v26.7h-4.5zM241.8 318h4.5v71.3h-4.5zm63.7-89.1h4.5v106.9h-4.5zm127.2 71.2h4.5v71.3h-4.5zm63.7-98h4.5v62.4h-4.5zM369.1 335.8h4.4v133.6h-4.4zm1336.4 320.6h4.5v26.7h-4.5zm0 160.4h4.5v26.7h-4.5zm-127.3-151.5h4.5v71.3h-4.5zm-159.1-8.9h4.5V692h-4.5zm63.7 71.3h4.5v35.6h-4.5zm127.3-44.5h4.5v35.6h-4.5zm-95.5-26.8h4.5v26.7h-4.5zm0 160.4h4.5v26.7h-4.5zm-95.5-71.3h4.5v71.3h-4.5zm63.7 53.5h4.5v106.9h-4.5zm127.3-35.7h4.5v71.3h-4.5zM782.8 260.2h4.4v102.3h-4.4zM814.6 416h4.4v53.5h-4.4zm477.3 347.3h4.5v80.2h-4.5zm-63.7-106.9h4.5v26.7h-4.5zm95.5 142.6h4.5v26.7h-4.5zm0-98h4.5v71.3h-4.5zm-31.8 169.2h4.5v105.2h-4.5zm-127.3-17.8h4.5v62.4h-4.5zm222.7-187.1h4.5v98h-4.5zm-159.1 80.2h4.5v71.3h-4.5zm-127.3 44.6h4.5v35.6h-4.5zm0-124.8h4.5V692h-4.5zm-31.8-8.9h4.5v80.2h-4.5zm191 0h4.4v196h-4.4zm-95.5 80.2h4.4v53.5h-4.4zm-95.5-365.2h4.5V407h-4.5zM941.8 416h4.5v35.6h-4.5zm222.8-240.6h4.5V211h-4.5zm-127.3 276.2h4.5v26.7h-4.5zm127.3-53.5h4.5v71.3h-4.5zm-127.3-44.5h4.5v71.3h-4.5zm95.5-35.6h4.5v71.3h-4.5zm-191-17.9h4.5v71.3h-4.5zm-700 463.3h4.5v80.2h-4.5zm63.7-106.9h4.5v26.7h-4.5zM210 799.1h4.5v26.7H210zm127.3-142.6h4.5v62.4h-4.5zm31.8 196h4.5v62.4h-4.5zm-63.6-106.9h4.5v71.3h-4.5zm127.2-80.2h4.5v26.7h-4.5zm31.8-8.9h4.5v80.2h-4.5zm-190.8 0h4.4v196h-4.4zm95.4 80.2h4.4v53.5h-4.4zm159.1-71.3h4.5v71.3h-4.5zm159.1-8.9h4.5v35.6h-4.5zm-31.8 26.7h4.5v35.6h-4.5zM591.8 710h4.5v71.3h-4.5zm95.5 35.6h4.5v71.3h-4.5zm-63.6 53.5h4.5V906h-4.5zm-127.3-35.7h4.5v71.3h-4.5zm63.7-98h4.4V799h-4.4zm254.5 0h4.5v71.3h-4.5zm-63.7-8.9h4.5v26.7h-4.5zm0 160.4h4.5v26.7h-4.5zm0-106.9h4.5v71.3h-4.5zm95.5 53.4h4.5v71.3h-4.5zm63.7-98h4.4V799h-4.4zm63.5-8.9h4.5v80.2h-4.5zm0 213.8h4.5v62.4h-4.5zm-31.8-178.1h4.4V906h-4.4zm413.7-303h4.5v35.6h-4.5zm31.8-53.4h4.5v26.7h-4.5zm0 62.3h4.5v80.2h-4.5zM1228.2 220h4.5v62.4h-4.5zm63.7 89.1h4.5v35.6h-4.5zm31.8 89h4.5v80.2h-4.5zm-63.6-133.6h4.4v213.8h-4.4zm-63.7-4.3h4.4v102.3h-4.4zm477.3-84.9h4.5v35.6h-4.5zm0 80.2h4.5v115.8h-4.5zm0 142.5h4.5v71.3h-4.5zm-95.5.1h4.5v71.3h-4.5zm63.7 53.4h4.5v26.7h-4.5zm-31.8-115.8h4.4v133.6h-4.4zm-63.7-35.6h4.5v71.3h-4.5zm-127.2 98h4.5v80.2h-4.5zm0-196h4.5v62.4h-4.5zm31.9 26.7h4.4v213.8h-4.4z" id="Layer_2"/></svg>