<svg id="Calque_1" xmlns="http://www.w3.org/2000/svg" viewBox="0 0 1920 1080"><style>.st0{fill:#fff}.st1{fill:none}</style><title>SaloneLudicoLogo-large-l2</title><g id="Layer_3"><path class="st0" d="M369.1 558.5h4.5v17.8h-4.5zm31.8-26.7h4.5v98h-4.5zM878.2 612h4.5v17.8h-4.5zm31.8 0h4.5v17.8H910zm-700 0h4.5v17.8H210zm31.8-53.5h4.5v17.8h-4.5zM1578.2 505h4.5v17.8h-4.5zm-254.5 26.8h4.5v71.3h-4.5zm95.4-26.8h4.5v124.7h-4.5zm31.9 0h4.5v17.8h-4.5zm-413.7 107h4.5v17.8h-4.5zM623.7 442.7h4.5v35.6h-4.5zm63.6-151.5h4.5v80.2h-4.5zm-159.1 44.6h4.5V416h-4.5zm222.7 115.8h4.5v26.7h-4.5zm286.4 204.8h4.5v26.7h-4.5zM846.4 264.5h4.4v213.8h-4.4zM273.6 416h4.5v35.6h-4.5zM210 255.6h4.5v115.8H210zm127.3 98h4.5v71.3h-4.5zm127.3-249.1h4.4V416h-4.4zm1209.1 560.8h4.4v133.6h-4.4zm-159.1 44.6h4.5v71.3h-4.5zm-63.6-53.8h4.4v89.1h-4.4zm-63.7 160.7h4.5v35.6h-4.5zm-190.9-160.4h4.5v62.4h-4.5zm95.5 8.9h4.5v80.2h-4.5zm-159.1-8.9h4.4v213.8h-4.4zM973.7 398.1h4.5v71.3h-4.5zm127.2 17.9h4.5v35.6h-4.5zm-63.6-124.8h4.5v26.7h-4.5zm127.3-35.6h4.5v115.8h-4.5z"/><path class="st1" d="M214.5 701.1v71.2m-4.5 0v-71.2"/><path class="st0" d="M241.8 870.3h4.5v105.2h-4.5zm190.9-80.1h4.5v35.6h-4.5zm-95.4-17.9h4.4v102.3h-4.4zm159.1-89.1h4.5v35.6h-4.5zm95.4-26.7h4.5v26.7h-4.5zm0 160.4h4.5v26.7h-4.5zm127.3-53.5h4.5v115.8h-4.5zm63.7-98h4.4V799h-4.4zm95.4 0h4.5v71.3h-4.5zm413.7-222.7h4.5v26.7h-4.5zm-63.6-98h4.4v53.5h-4.4zm477.2 97.9h4.5v35.6h-4.5zm-63.6-151.4h4.5v26.7h-4.5zm-127.3 106.9h4.5v71.3h-4.5z"/></g></svg>