<?xml version="1.0" encoding="utf-8"?>
<!-- Generator: Adobe Illustrator 19.2.1, SVG Export Plug-In . SVG Version: 6.00 Build 0)  -->
<svg version="1.1" id="Calque_1" xmlns="http://www.w3.org/2000/svg" xmlns:xlink="http://www.w3.org/1999/xlink" x="0px" y="0px"
	 viewBox="0 0 1920 1080" style="enable-background:new 0 0 1920 1080;" xml:space="preserve">
<style type="text/css">
	.st0{fill:#FFFFFF;}
</style>
<title>SaloneLudicoLogo-large-l1</title>
<g id="Layer_2">
	<rect x="337.3" y="531.8" class="st0" width="4.5" height="98"/>
	<rect x="369.1" y="505" class="st0" width="4.5" height="17.8"/>
	<rect x="878.2" y="558.5" class="st0" width="4.5" height="17.8"/>
	<rect x="910" y="558.5" class="st0" width="4.5" height="17.8"/>
	<rect x="464.6" y="505" class="st0" width="4.5" height="124.7"/>
	<rect x="528.2" y="612" class="st0" width="4.5" height="17.8"/>
	<rect x="719.1" y="505" class="st0" width="4.5" height="124.7"/>
	<rect x="750.9" y="505" class="st0" width="4.5" height="17.8"/>
	<rect x="591.8" y="531.8" class="st0" width="4.5" height="71.3"/>
	<rect x="623.7" y="505" class="st0" width="4.5" height="17.8"/>
	<rect x="210" y="531.8" class="st0" width="4.5" height="44.5"/>
	<rect x="241.8" y="612" class="st0" width="4.5" height="17.8"/>
	<rect x="273.6" y="558.5" class="st0" width="4.5" height="44.5"/>
	<rect x="1546.4" y="505" class="st0" width="4.5" height="17.8"/>
	<rect x="1291.9" y="505" class="st0" width="4.5" height="17.8"/>
	<rect x="1387.3" y="505" class="st0" width="4.5" height="17.8"/>
	<rect x="1451" y="612" class="st0" width="4.5" height="17.8"/>
	<rect x="1069.1" y="612" class="st0" width="4.5" height="17.8"/>
	<rect x="1641.9" y="531.8" class="st0" width="4.5" height="71.3"/>
	<rect x="1673.7" y="505" class="st0" width="4.5" height="17.8"/>
	<rect x="1673.7" y="612" class="st0" width="4.5" height="17.8"/>
	<rect x="1705.5" y="531.8" class="st0" width="4.5" height="71.3"/>
	<rect x="1164.6" y="612" class="st0" width="4.5" height="17.8"/>
	<rect x="1196.4" y="505" class="st0" width="4.5" height="124.7"/>
	<rect x="591.8" y="282.3" class="st0" width="4.5" height="35.6"/>
	<rect x="1355.5" y="656.1" class="st0" width="4.5" height="35.6"/>
	<rect x="655.5" y="362.5" class="st0" width="4.5" height="71.3"/>
	<rect x="400.9" y="398.1" class="st0" width="4.5" height="71.3"/>
	<rect x="496.4" y="398.1" class="st0" width="4.5" height="80.2"/>
	<rect x="782.8" y="416" class="st0" width="4.5" height="62.4"/>
	<rect x="687.3" y="159.3" class="st0" width="4.5" height="105.2"/>
	<rect x="814.6" y="220" class="st0" width="4.5" height="62.4"/>
	<rect x="750.9" y="318" class="st0" width="4.5" height="71.3"/>
	<rect x="560.1" y="255.6" class="st0" width="4.4" height="222.7"/>
	<rect x="878.2" y="309.1" class="st0" width="4.5" height="35.6"/>
	<rect x="878.2" y="442.7" class="st0" width="4.5" height="26.7"/>
	<rect x="910" y="398.1" class="st0" width="4.5" height="80.2"/>
	<rect x="1037.3" y="709.9" class="st0" width="4.5" height="35.6"/>
	<rect x="1005.5" y="772.2" class="st0" width="4.5" height="26.7"/>
	<rect x="1005.5" y="656.4" class="st0" width="4.5" height="80.2"/>
	<rect x="719.2" y="282.3" class="st0" width="4.4" height="196"/>
	<rect x="241.8" y="442.7" class="st0" width="4.5" height="35.6"/>
	<rect x="305.5" y="371.4" class="st0" width="4.5" height="35.6"/>
	<rect x="432.7" y="416" class="st0" width="4.5" height="35.6"/>
	<rect x="210" y="175.4" class="st0" width="4.5" height="35.6"/>
	<rect x="337.3" y="291.2" class="st0" width="4.5" height="26.7"/>
	<rect x="241.8" y="318" class="st0" width="4.5" height="71.3"/>
	<rect x="305.5" y="228.9" class="st0" width="4.5" height="106.9"/>
	<rect x="432.7" y="300.1" class="st0" width="4.5" height="71.3"/>
	<rect x="496.4" y="202.1" class="st0" width="4.5" height="62.4"/>
	<rect x="369.1" y="335.8" class="st0" width="4.4" height="133.6"/>
	<rect x="1705.5" y="656.4" class="st0" width="4.5" height="26.7"/>
	<rect x="1705.5" y="816.8" class="st0" width="4.5" height="26.7"/>
	<rect x="1578.2" y="665.3" class="st0" width="4.5" height="71.3"/>
	<rect x="1419.1" y="656.4" class="st0" width="4.5" height="35.6"/>
	<rect x="1482.8" y="727.7" class="st0" width="4.5" height="35.6"/>
	<rect x="1610.1" y="683.2" class="st0" width="4.5" height="35.6"/>
	<rect x="1514.6" y="656.4" class="st0" width="4.5" height="26.7"/>
	<rect x="1514.6" y="816.8" class="st0" width="4.5" height="26.7"/>
	<rect x="1419.1" y="745.5" class="st0" width="4.5" height="71.3"/>
	<rect x="1482.8" y="799" class="st0" width="4.5" height="106.9"/>
	<rect x="1610.1" y="763.3" class="st0" width="4.5" height="71.3"/>
	<rect x="782.8" y="260.2" class="st0" width="4.4" height="102.3"/>
	<rect x="814.6" y="416" class="st0" width="4.4" height="53.5"/>
	<rect x="1291.9" y="763.3" class="st0" width="4.5" height="80.2"/>
	<rect x="1228.2" y="656.4" class="st0" width="4.5" height="26.7"/>
	<rect x="1323.7" y="799" class="st0" width="4.5" height="26.7"/>
	<rect x="1323.7" y="701" class="st0" width="4.5" height="71.3"/>
	<rect x="1291.9" y="870.2" class="st0" width="4.5" height="105.2"/>
	<rect x="1164.6" y="852.4" class="st0" width="4.5" height="62.4"/>
	<rect x="1387.3" y="665.3" class="st0" width="4.5" height="98"/>
	<rect x="1228.2" y="745.5" class="st0" width="4.5" height="71.3"/>
	<rect x="1100.9" y="790.1" class="st0" width="4.5" height="35.6"/>
	<rect x="1100.9" y="665.3" class="st0" width="4.5" height="26.7"/>
	<rect x="1069.1" y="656.4" class="st0" width="4.5" height="80.2"/>
	<rect x="1260.1" y="656.4" class="st0" width="4.4" height="196"/>
	<rect x="1164.6" y="736.6" class="st0" width="4.4" height="53.5"/>
	<rect x="1069.1" y="371.4" class="st0" width="4.5" height="35.6"/>
	<rect x="941.8" y="416" class="st0" width="4.5" height="35.6"/>
	<rect x="1164.6" y="175.4" class="st0" width="4.5" height="35.6"/>
	<rect x="1037.3" y="451.6" class="st0" width="4.5" height="26.7"/>
	<rect x="1164.6" y="398.1" class="st0" width="4.5" height="71.3"/>
	<rect x="1037.3" y="353.6" class="st0" width="4.5" height="71.3"/>
	<rect x="1132.8" y="318" class="st0" width="4.5" height="71.3"/>
	<rect x="941.8" y="300.1" class="st0" width="4.5" height="71.3"/>
	<rect x="241.8" y="763.4" class="st0" width="4.5" height="80.2"/>
	<rect x="305.5" y="656.5" class="st0" width="4.5" height="26.7"/>
	<rect x="210" y="799.1" class="st0" width="4.5" height="26.7"/>
	<rect x="337.3" y="656.5" class="st0" width="4.5" height="62.4"/>
	<rect x="369.1" y="852.5" class="st0" width="4.5" height="62.4"/>
	<rect x="305.5" y="745.6" class="st0" width="4.5" height="71.3"/>
	<rect x="432.7" y="665.4" class="st0" width="4.5" height="26.7"/>
	<rect x="464.5" y="656.5" class="st0" width="4.5" height="80.2"/>
	<rect x="273.7" y="656.5" class="st0" width="4.4" height="196"/>
	<rect x="369.1" y="736.7" class="st0" width="4.4" height="53.5"/>
	<rect x="528.2" y="665.4" class="st0" width="4.5" height="71.3"/>
	<rect x="687.3" y="656.5" class="st0" width="4.5" height="35.6"/>
	<rect x="655.5" y="683.2" class="st0" width="4.5" height="35.6"/>
	<rect x="591.8" y="710" class="st0" width="4.5" height="71.3"/>
	<rect x="687.3" y="745.6" class="st0" width="4.5" height="71.3"/>
	<rect x="623.7" y="799.1" class="st0" width="4.5" height="106.9"/>
	<rect x="496.4" y="763.4" class="st0" width="4.5" height="71.3"/>
	<rect x="560.1" y="665.4" class="st0" width="4.4" height="133.6"/>
	<rect x="814.6" y="665.4" class="st0" width="4.5" height="71.3"/>
	<rect x="750.9" y="656.5" class="st0" width="4.5" height="26.7"/>
	<rect x="750.9" y="816.9" class="st0" width="4.5" height="26.7"/>
	<rect x="750.9" y="710" class="st0" width="4.5" height="71.3"/>
	<rect x="846.4" y="763.4" class="st0" width="4.5" height="71.3"/>
	<rect x="910.1" y="665.4" class="st0" width="4.4" height="133.6"/>
	<rect x="973.6" y="656.5" class="st0" width="4.5" height="80.2"/>
	<rect x="973.6" y="870.3" class="st0" width="4.5" height="62.4"/>
	<rect x="941.8" y="692.2" class="st0" width="4.4" height="213.8"/>
	<rect x="1355.5" y="389.2" class="st0" width="4.5" height="35.6"/>
	<rect x="1387.3" y="335.8" class="st0" width="4.5" height="26.7"/>
	<rect x="1387.3" y="398.1" class="st0" width="4.5" height="80.2"/>
	<rect x="1228.2" y="220" class="st0" width="4.5" height="62.4"/>
	<rect x="1291.9" y="309.1" class="st0" width="4.5" height="35.6"/>
	<rect x="1323.7" y="398.1" class="st0" width="4.5" height="80.2"/>
	<rect x="1260.1" y="264.5" class="st0" width="4.4" height="213.8"/>
	<rect x="1196.4" y="260.2" class="st0" width="4.4" height="102.3"/>
	<rect x="1673.7" y="175.3" class="st0" width="4.5" height="35.6"/>
	<rect x="1673.7" y="255.5" class="st0" width="4.5" height="115.8"/>
	<rect x="1673.7" y="398" class="st0" width="4.5" height="71.3"/>
	<rect x="1578.2" y="398.1" class="st0" width="4.5" height="71.3"/>
	<rect x="1641.9" y="451.5" class="st0" width="4.5" height="26.7"/>
	<rect x="1610.1" y="335.7" class="st0" width="4.4" height="133.6"/>
	<rect x="1546.4" y="300.1" class="st0" width="4.5" height="71.3"/>
	<rect x="1419.2" y="398.1" class="st0" width="4.5" height="80.2"/>
	<rect x="1419.2" y="202.1" class="st0" width="4.5" height="62.4"/>
	<rect x="1451.1" y="228.8" class="st0" width="4.4" height="213.8"/>
</g>
</svg>
