<?xml version="1.0" encoding="utf-8"?>
<!-- Generator: Adobe Illustrator 19.2.1, SVG Export Plug-In . SVG Version: 6.00 Build 0)  -->
<svg version="1.1" id="Calque_1" xmlns="http://www.w3.org/2000/svg" xmlns:xlink="http://www.w3.org/1999/xlink" x="0px" y="0px"
	 viewBox="0 0 750 1334" style="enable-background:new 0 0 750 1334;" xml:space="preserve">
<style type="text/css">
	.st0{fill:#FFFFFF;}
</style>
<title>SaloneLudicoLogo-l1</title>
<g id="Layer_1">
	<rect x="166.1" y="492.8" class="st0" width="4.2" height="91"/>
	<rect x="225.2" y="492.8" class="st0" width="4.2" height="91"/>
	<rect x="668.3" y="468" class="st0" width="4.2" height="16.5"/>
	<rect x="697.8" y="468" class="st0" width="4.2" height="16.5"/>
	<rect x="697.8" y="567.2" class="st0" width="4.2" height="16.5"/>
	<rect x="313.8" y="567.2" class="st0" width="4.2" height="16.5"/>
	<rect x="343.4" y="567.2" class="st0" width="4.2" height="16.5"/>
	<rect x="550.1" y="468" class="st0" width="4.2" height="16.5"/>
	<rect x="579.7" y="492.8" class="st0" width="4.2" height="91"/>
	<rect x="432" y="567.2" class="st0" width="4.2" height="16.5"/>
	<rect x="461.5" y="492.8" class="st0" width="4.2" height="66.2"/>
	<rect x="77.5" y="468" class="st0" width="4.2" height="16.5"/>
	<rect x="107.1" y="517.6" class="st0" width="4.2" height="41.3"/>
	<rect x="550.1" y="642.8" class="st0" width="4.2" height="16.5"/>
	<rect x="579.7" y="642.8" class="st0" width="4.2" height="16.5"/>
	<rect x="343.4" y="667.7" class="st0" width="4.2" height="66.2"/>
	<rect x="402.5" y="642.8" class="st0" width="4.2" height="16.5"/>
	<rect x="461.5" y="642.8" class="st0" width="4.2" height="16.5"/>
	<rect x="107.1" y="742.1" class="st0" width="4.2" height="16.5"/>
	<rect x="668.3" y="642.8" class="st0" width="4.2" height="16.5"/>
	<rect x="697.8" y="667.7" class="st0" width="4.2" height="66.2"/>
	<rect x="195.7" y="742.1" class="st0" width="4.2" height="16.5"/>
	<rect x="225.2" y="642.8" class="st0" width="4.2" height="115.8"/>
	<rect x="432" y="410.1" class="st0" width="4.2" height="33.1"/>
	<rect x="402.5" y="261.2" class="st0" width="4.2" height="33.1"/>
	<rect x="491.1" y="269.5" class="st0" width="4.2" height="74.4"/>
	<rect x="372.9" y="907.5" class="st0" width="4.2" height="24.8"/>
	<rect x="550.1" y="211.6" class="st0" width="4.2" height="24.8"/>
	<rect x="461.5" y="335.7" class="st0" width="4.2" height="66.2"/>
	<rect x="225.2" y="368.8" class="st0" width="4.2" height="66.2"/>
	<rect x="313.9" y="368.8" class="st0" width="4.2" height="74.4"/>
	<rect x="579.7" y="385.3" class="st0" width="4.2" height="57.9"/>
	<rect x="491.1" y="360.5" class="st0" width="4.2" height="74.4"/>
	<rect x="609.2" y="203.3" class="st0" width="4.2" height="57.9"/>
	<rect x="402.5" y="343.9" class="st0" width="4.2" height="91"/>
	<rect x="343.4" y="294.3" class="st0" width="4.2" height="91"/>
	<rect x="550.1" y="294.3" class="st0" width="4.2" height="66.2"/>
	<rect x="668.3" y="286" class="st0" width="4.2" height="33.1"/>
	<rect x="668.3" y="410.1" class="st0" width="4.2" height="24.8"/>
	<rect x="697.8" y="368.8" class="st0" width="4.2" height="74.4"/>
	<rect x="77.5" y="833.3" class="st0" width="4.2" height="33.1"/>
	<rect x="638.8" y="244.7" class="st0" width="4.1" height="198.5"/>
	<rect x="136.6" y="343.9" class="st0" width="4.2" height="33.1"/>
	<rect x="254.8" y="385.3" class="st0" width="4.2" height="33.1"/>
	<rect x="48" y="162" class="st0" width="4.2" height="33.1"/>
	<rect x="107.1" y="385.3" class="st0" width="4.2" height="33.1"/>
	<rect x="166.2" y="418.4" class="st0" width="4.2" height="24.8"/>
	<rect x="166.2" y="269.5" class="st0" width="4.2" height="24.8"/>
	<rect x="48" y="368.7" class="st0" width="4.2" height="66.2"/>
	<rect x="77.5" y="294.3" class="st0" width="4.2" height="66.2"/>
	<rect x="313.9" y="186.8" class="st0" width="4.2" height="57.9"/>
	<rect x="284.4" y="96.2" class="st0" width="4.1" height="289.1"/>
	<rect x="195.7" y="310.9" class="st0" width="4.1" height="124.1"/>
	<rect x="697.8" y="783.7" class="st0" width="4.2" height="24.8"/>
	<rect x="668.3" y="792" class="st0" width="4.1" height="124.1"/>
	<rect x="432" y="783.7" class="st0" width="4.2" height="33.1"/>
	<rect x="491.1" y="849.9" class="st0" width="4.2" height="33.1"/>
	<rect x="609.2" y="808.5" class="st0" width="4.2" height="33.1"/>
	<rect x="520.6" y="932.6" class="st0" width="4.2" height="24.8"/>
	<rect x="520.6" y="833.4" class="st0" width="4.2" height="66.2"/>
	<rect x="491.1" y="916.1" class="st0" width="4.2" height="99.2"/>
	<rect x="609.2" y="883" class="st0" width="4.2" height="66.2"/>
	<rect x="550.2" y="792" class="st0" width="4.1" height="124.1"/>
	<rect x="461.5" y="915.8" class="st0" width="4.2" height="49.9"/>
	<rect x="609.3" y="319.1" class="st0" width="4.1" height="49.6"/>
	<rect x="254.8" y="783.7" class="st0" width="4.2" height="24.8"/>
	<rect x="343.4" y="916.1" class="st0" width="4.2" height="24.8"/>
	<rect x="313.8" y="792" class="st0" width="4.2" height="74.4"/>
	<rect x="313.8" y="982.2" class="st0" width="4.2" height="97.6"/>
	<rect x="195.7" y="965.7" class="st0" width="4.2" height="57.9"/>
	<rect x="402.4" y="792" class="st0" width="4.2" height="91"/>
	<rect x="254.8" y="866.4" class="st0" width="4.2" height="66.2"/>
	<rect x="136.6" y="907.8" class="st0" width="4.2" height="33.1"/>
	<rect x="195.7" y="792" class="st0" width="4.1" height="49.6"/>
</g>
</svg>
