<?xml version="1.0" encoding="utf-8"?>
<!-- Generator: Adobe Illustrator 19.2.1, SVG Export Plug-In . SVG Version: 6.00 Build 0)  -->
<svg version="1.1" id="Calque_1" xmlns="http://www.w3.org/2000/svg" xmlns:xlink="http://www.w3.org/1999/xlink" x="0px" y="0px"
	 viewBox="0 0 1920 1080" style="enable-background:new 0 0 1920 1080;" xml:space="preserve">
<style type="text/css">
	.st0{fill:#FFFFFF;}
	.st1{fill:none;}
</style>
<title>SaloneLudicoLogo-large-l2</title>
<g id="Layer_3">
	<rect x="369.1" y="558.5" class="st0" width="4.5" height="17.8"/>
	<rect x="400.9" y="531.8" class="st0" width="4.5" height="98"/>
	<rect x="878.2" y="612" class="st0" width="4.5" height="17.8"/>
	<rect x="910" y="612" class="st0" width="4.5" height="17.8"/>
	<rect x="210" y="612" class="st0" width="4.5" height="17.8"/>
	<rect x="241.8" y="558.5" class="st0" width="4.5" height="17.8"/>
	<rect x="1578.2" y="505" class="st0" width="4.5" height="17.8"/>
	<rect x="1323.7" y="531.8" class="st0" width="4.5" height="71.3"/>
	<rect x="1419.1" y="505" class="st0" width="4.5" height="124.7"/>
	<rect x="1451" y="505" class="st0" width="4.5" height="17.8"/>
	<rect x="1037.3" y="612" class="st0" width="4.5" height="17.8"/>
	<rect x="623.7" y="442.7" class="st0" width="4.5" height="35.6"/>
	<rect x="687.3" y="291.2" class="st0" width="4.5" height="80.2"/>
	<rect x="528.2" y="335.8" class="st0" width="4.5" height="80.2"/>
	<rect x="750.9" y="451.6" class="st0" width="4.5" height="26.7"/>
	<rect x="1037.3" y="656.4" class="st0" width="4.5" height="26.7"/>
	<rect x="846.4" y="264.5" class="st0" width="4.4" height="213.8"/>
	<rect x="273.6" y="416" class="st0" width="4.5" height="35.6"/>
	<rect x="210" y="255.6" class="st0" width="4.5" height="115.8"/>
	<rect x="337.3" y="353.6" class="st0" width="4.5" height="71.3"/>
	<rect x="464.6" y="104.5" class="st0" width="4.4" height="311.5"/>
	<rect x="1673.7" y="665.3" class="st0" width="4.4" height="133.6"/>
	<rect x="1514.6" y="709.9" class="st0" width="4.5" height="71.3"/>
	<rect x="1451" y="656.1" class="st0" width="4.4" height="89.1"/>
	<rect x="1387.3" y="816.8" class="st0" width="4.5" height="35.6"/>
	<rect x="1196.4" y="656.4" class="st0" width="4.5" height="62.4"/>
	<rect x="1291.9" y="665.3" class="st0" width="4.5" height="80.2"/>
	<rect x="1132.8" y="656.4" class="st0" width="4.4" height="213.8"/>
	<rect x="973.7" y="398.1" class="st0" width="4.5" height="71.3"/>
	<rect x="1100.9" y="416" class="st0" width="4.5" height="35.6"/>
	<rect x="1037.3" y="291.2" class="st0" width="4.5" height="26.7"/>
	<rect x="1164.6" y="255.6" class="st0" width="4.5" height="115.8"/>
	<line class="st1" x1="214.5" y1="701.1" x2="214.5" y2="772.3"/>
	<line class="st1" x1="210" y1="772.3" x2="210" y2="701.1"/>
	<rect x="241.8" y="870.3" class="st0" width="4.5" height="105.2"/>
	<rect x="432.7" y="790.2" class="st0" width="4.5" height="35.6"/>
	<rect x="337.3" y="772.3" class="st0" width="4.4" height="102.3"/>
	<rect x="496.4" y="683.2" class="st0" width="4.5" height="35.6"/>
	<rect x="591.8" y="656.5" class="st0" width="4.5" height="26.7"/>
	<rect x="591.8" y="816.9" class="st0" width="4.5" height="26.7"/>
	<rect x="719.1" y="763.4" class="st0" width="4.5" height="115.8"/>
	<rect x="782.8" y="665.4" class="st0" width="4.4" height="133.6"/>
	<rect x="878.2" y="665.4" class="st0" width="4.5" height="71.3"/>
	<rect x="1291.9" y="442.7" class="st0" width="4.5" height="26.7"/>
	<rect x="1228.3" y="344.7" class="st0" width="4.4" height="53.5"/>
	<rect x="1705.5" y="442.6" class="st0" width="4.5" height="35.6"/>
	<rect x="1641.9" y="291.2" class="st0" width="4.5" height="26.7"/>
	<rect x="1514.6" y="398.1" class="st0" width="4.5" height="71.3"/>
</g>
</svg>
