<?xml version="1.0" encoding="utf-8"?>
<!-- Generator: Adobe Illustrator 19.2.1, SVG Export Plug-In . SVG Version: 6.00 Build 0)  -->
<svg version="1.1" id="Calque_1" xmlns="http://www.w3.org/2000/svg" xmlns:xlink="http://www.w3.org/1999/xlink" x="0px" y="0px"
	 viewBox="0 0 750 1334" style="enable-background:new 0 0 750 1334;" xml:space="preserve">
<style type="text/css">
	.st0{fill:#FFFFFF;}
</style>
<title>SaloneLudicoLogo-l3</title>
<g id="Layer_3">
	<rect x="166.2" y="327.4" class="st0" width="4.2" height="66.2"/>
	<rect x="136.6" y="211.6" class="st0" width="4.2" height="99.2"/>
	<rect x="195.7" y="468" class="st0" width="4.2" height="16.5"/>
	<rect x="195.7" y="517.6" class="st0" width="4.2" height="16.5"/>
	<rect x="77.5" y="517.6" class="st0" width="4.2" height="16.5"/>
	<rect x="77.5" y="567.2" class="st0" width="4.2" height="16.5"/>
	<rect x="48" y="783.7" class="st0" width="4.2" height="74.4"/>
	<rect x="107.1" y="783.7" class="st0" width="4.2" height="74.4"/>
	<rect x="166.2" y="783.7" class="st0" width="4.1" height="198.5"/>
	<rect x="225.2" y="783.7" class="st0" width="4.2" height="57.9"/>
	<rect x="254.8" y="990.5" class="st0" width="4.2" height="24.8"/>
	<rect x="284.3" y="642.8" class="st0" width="4.2" height="115.8"/>
	<rect x="284.4" y="783.7" class="st0" width="4.1" height="182"/>
	<rect x="313.8" y="742.1" class="st0" width="4.2" height="16.5"/>
	<rect x="372.9" y="783.5" class="st0" width="4.2" height="33.1"/>
	<rect x="402.5" y="742.1" class="st0" width="4.2" height="16.5"/>
	<rect x="432" y="642.8" class="st0" width="4.2" height="115.8"/>
	<rect x="461.5" y="286" class="st0" width="4.2" height="24.8"/>
	<rect x="520.7" y="261.2" class="st0" width="4.1" height="181.9"/>
	<rect x="579.7" y="742.1" class="st0" width="4.2" height="16.5"/>
	<rect x="579.7" y="792" class="st0" width="4.2" height="66.2"/>
	<rect x="638.8" y="468" class="st0" width="4.2" height="115.8"/>
	<rect x="668.3" y="567.2" class="st0" width="4.2" height="16.5"/>
	<rect x="697.8" y="335.7" class="st0" width="4.2" height="24.8"/>
</g>
</svg>
