<?xml version="1.0" encoding="utf-8"?>
<!-- Generator: Adobe Illustrator 19.2.1, SVG Export Plug-In . SVG Version: 6.00 Build 0)  -->
<svg version="1.1" id="Calque_1" xmlns="http://www.w3.org/2000/svg" xmlns:xlink="http://www.w3.org/1999/xlink" x="0px" y="0px"
	 viewBox="0 0 750 1334" style="enable-background:new 0 0 750 1334;" xml:space="preserve">
<style type="text/css">
	.st0{fill:#FFFFFF;}
</style>
<title>SaloneLudicoLogo-l2</title>
<g id="Layer_2">
	<rect x="48" y="492.8" class="st0" width="4.2" height="41.3"/>
	<rect x="48" y="567.2" class="st0" width="4.2" height="16.5"/>
	<rect x="48" y="642.8" class="st0" width="4.2" height="115.8"/>
	<rect x="48" y="891.2" class="st0" width="4.2" height="24.8"/>
	<rect x="48" y="236.4" class="st0" width="4.2" height="107.5"/>
	<rect x="77.5" y="742.1" class="st0" width="4.2" height="16.5"/>
	<rect x="77.5" y="783.7" class="st0" width="4.2" height="24.8"/>
	<rect x="77.5" y="410.1" class="st0" width="4.2" height="33.1"/>
	<rect x="107.1" y="468" class="st0" width="4.2" height="16.5"/>
	<rect x="107.1" y="866.4" class="st0" width="4.2" height="24.8"/>
	<rect x="136.6" y="792" class="st0" width="4.2" height="24.8"/>
	<rect x="166.1" y="642.8" class="st0" width="4.2" height="91"/>
	<rect x="195.7" y="858.2" class="st0" width="4.1" height="49.6"/>
	<rect x="225.3" y="891.3" class="st0" width="4.1" height="94.9"/>
	<rect x="254.8" y="277.8" class="st0" width="4.2" height="66.2"/>
	<rect x="284.3" y="468" class="st0" width="4.2" height="115.8"/>
	<rect x="313.8" y="642.8" class="st0" width="4.2" height="16.5"/>
	<rect x="313.9" y="319.1" class="st0" width="4.2" height="24.8"/>
	<rect x="313.8" y="883" class="st0" width="4.2" height="74.4"/>
	<rect x="343.4" y="825.1" class="st0" width="4.2" height="66.2"/>
	<rect x="373" y="236.4" class="st0" width="4.1" height="206.8"/>
	<rect x="402.5" y="492.8" class="st0" width="4.2" height="66.2"/>
	<rect x="402.4" y="932.6" class="st0" width="4.2" height="33.1"/>
	<rect x="432" y="468" class="st0" width="4.2" height="16.5"/>
	<rect x="432" y="866.4" class="st0" width="4.2" height="66.2"/>
	<rect x="461.5" y="742.1" class="st0" width="4.2" height="16.5"/>
	<rect x="461.6" y="783.5" class="st0" width="4.1" height="82.7"/>
	<rect x="491.1" y="147.1" class="st0" width="4.2" height="97.6"/>
	<rect x="520.6" y="468" class="st0" width="4.2" height="115.8"/>
	<rect x="520.6" y="667.7" class="st0" width="4.2" height="66.2"/>
	<rect x="520.6" y="783.7" class="st0" width="4.2" height="24.8"/>
	<rect x="550.1" y="742.1" class="st0" width="4.2" height="16.5"/>
	<rect x="550.1" y="418.4" class="st0" width="4.2" height="24.8"/>
	<rect x="579.7" y="240.7" class="st0" width="4.1" height="94.9"/>
	<rect x="609.3" y="385.3" class="st0" width="4.1" height="49.6"/>
	<rect x="638.8" y="667.7" class="st0" width="4.2" height="66.2"/>
	<rect x="638.8" y="792" class="st0" width="4.2" height="66.2"/>
	<rect x="668.3" y="517.6" class="st0" width="4.2" height="16.5"/>
	<rect x="668.3" y="742.1" class="st0" width="4.2" height="16.5"/>
	<rect x="697.8" y="517.6" class="st0" width="4.2" height="16.5"/>
	<rect x="697.8" y="932.6" class="st0" width="4.2" height="24.8"/>
	<rect x="697.8" y="833.3" class="st0" width="4.2" height="66.2"/>
</g>
</svg>
